<svg width="220" height="252" viewBox="0 0 220 252" fill="none" xmlns="http://www.w3.org/2000/svg" xmlns:xlink="http://www.w3.org/1999/xlink">
  <g style="mix-blend-mode:multiply" opacity="0.15">
    <path d="M109.993 252C49.2457 252 0 245.733 0 238.003C0 230.272 49.2457 224.006 109.993 224.006C170.741 224.006 219.987 230.272 219.987 238.003C219.987 245.733 170.741 252 109.993 252Z" fill="#2C2355"/>
  </g>
  <rect x="60.8764" width="116" height="65" fill="url(#pattern0)"/>
  <path d="M20.3199 140.295C17.9726 140.295 15.6494 139.788 13.5283 138.743C8.19 136.114 5.3183 130.712 5.84584 124.293C6.71775 113.688 16.6022 107.028 24.5444 101.676C26.9504 100.054 29.2224 98.5225 31.0599 97.0282L35.1428 102.047C33.0798 103.725 30.6903 105.336 28.1597 107.041C21.0124 111.857 12.9116 117.317 12.2944 124.823C11.9835 128.604 13.4367 131.486 16.3868 132.938C19.2969 134.373 23.8974 134.308 27.6094 130.934L31.9614 135.722C28.6664 138.717 24.4572 140.295 20.3199 140.295Z" fill="#49433E"/>
  <path d="M199.19 140.295C201.538 140.295 203.861 139.788 205.982 138.743C211.32 136.114 214.192 130.712 213.664 124.293C212.792 113.688 202.908 107.028 194.966 101.676C192.56 100.054 190.288 98.5225 188.45 97.0282L184.368 102.047C186.431 103.725 188.82 105.336 191.35 107.041C198.498 111.857 206.599 117.317 207.216 124.823C207.527 128.604 206.074 131.486 203.123 132.938C200.213 134.373 195.613 134.308 191.901 130.934L187.549 135.722C190.844 138.717 195.053 140.295 199.19 140.295Z" fill="#423C37"/>
  <path d="M36.9546 69.6684L25.6395 61.8711L25.6394 61.8713C25.4613 62.2325 25.2949 62.5843 25.1378 62.9282C25.1293 62.9468 25.1196 62.9664 25.1112 62.985C24.9527 63.3335 24.8058 63.6719 24.6698 64.0005C24.6662 64.0094 24.662 64.0185 24.6584 64.0272C24.3802 64.7011 24.15 65.3311 23.9707 65.9087L33.6527 72.5805C34.6841 71.886 35.7952 70.896 36.9546 69.6684Z" fill="#F7C037"/>
  <path d="M171.836 195.984C171.584 213.322 174.662 232.052 168.313 233.877C161.964 235.702 153.391 219.915 145.446 208.242C139.229 199.109 150.912 197.25 157.261 195.425C163.61 193.6 171.996 184.937 171.836 195.984Z" fill="#423C37"/>
  <path d="M51.9789 195.984C52.2307 213.322 49.1528 232.052 55.5019 233.877C61.851 235.702 70.424 219.915 78.369 208.242C84.5856 199.109 72.9027 197.25 66.5536 195.425C60.2047 193.6 51.8185 184.937 51.9789 195.984Z" fill="#423C37"/>
  <path d="M126.343 201.631C121.039 218.139 118.512 236.952 111.907 236.843C105.302 236.734 101.713 219.131 97.5238 205.647C94.2456 195.096 105.962 196.73 112.568 196.839C119.173 196.948 129.723 191.112 126.343 201.631Z" fill="#423C37"/>
  <path d="M189.605 77.8922H194.095H196.594C201.707 77.8922 205.852 73.7473 205.852 68.6341C205.852 63.5211 201.707 59.3761 196.594 59.3761H194.095H25.2898H22.7912C17.6782 59.3761 13.5331 63.5211 13.5331 68.6341C13.5331 73.7472 17.678 77.8922 22.7912 77.8922H25.2898H29.7853C36.0264 77.8922 39.4897 85.0577 35.6642 89.9888C23.2133 106.038 15.8645 126.241 16.0615 148.172C16.5162 198.791 57.7491 225.329 108.365 226.03C160.687 226.755 203.328 199.467 203.328 147.312C203.328 125.726 196.018 105.851 183.743 90.0167C179.91 85.0724 183.349 77.8922 189.605 77.8922Z" fill="#49433E"/>
  <path d="M64.2834 125.212C74.5605 114.935 77.1294 100.841 70.021 93.7327C62.9127 86.6244 48.819 89.1932 38.5418 99.4704C28.2647 109.748 25.6958 123.841 32.8042 130.95C39.9125 138.058 54.0062 135.489 64.2834 125.212Z" fill="#56504C"/>
  <path d="M54.814 153.864C59.0893 149.589 60.1579 143.726 57.2008 140.768C54.2438 137.811 48.3808 138.88 44.1055 143.155C39.8302 147.431 38.7616 153.294 41.7186 156.251C44.6757 159.208 50.5387 158.139 54.814 153.864Z" fill="#56504C"/>
  <path d="M182.942 88.7152C181.903 86.6421 181.938 84.3478 182.767 82.4057C182.784 82.3676 182.797 82.3281 182.814 82.2902C182.909 82.0772 183.02 81.8722 183.134 81.669C183.18 81.5881 183.223 81.5058 183.271 81.4265C183.377 81.2535 183.494 81.0879 183.613 80.9239C183.686 80.8233 183.76 80.7228 183.838 80.626C183.952 80.4847 184.073 80.3492 184.197 80.2162C184.298 80.1086 184.402 80.0034 184.509 79.9017C184.63 79.7873 184.754 79.6766 184.882 79.5702C185.01 79.4651 185.142 79.3659 185.278 79.2692C185.404 79.1786 185.531 79.089 185.663 79.0063C185.817 78.9108 185.977 78.825 186.139 78.7405C186.269 78.6723 186.398 78.6021 186.533 78.5416C186.714 78.4607 186.904 78.394 187.094 78.3273C187.224 78.2817 187.35 78.2303 187.484 78.1919C187.704 78.1286 187.934 78.0847 188.164 78.0413C188.28 78.0194 188.392 77.9879 188.511 77.9711C188.865 77.9215 189.229 77.8925 189.605 77.8925H194.096H196.287C201.385 77.8925 205.757 73.9046 205.851 68.8079C205.946 63.6155 201.765 59.3764 196.594 59.3764H194.096H141.504C141.531 59.4229 141.559 59.4694 141.586 59.5161C146.376 67.6381 140.47 77.8925 131.041 77.8925H29.7853C35.5079 77.8925 38.8773 83.9132 36.4515 88.7155H128.818C147.066 88.7155 162.805 101.828 165.782 119.831C165.796 119.913 165.809 119.994 165.822 120.075C175.443 180.183 117.476 222.705 46.7281 208.279C63.083 219.725 84.6978 225.703 108.365 226.031C160.687 226.755 203.328 199.468 203.328 147.313C203.328 125.726 196.018 105.852 183.743 90.017C183.418 89.5983 183.165 89.1601 182.942 88.7152Z" fill="#423C37"/>
  <defs>
    <pattern id="pattern0" patternContentUnits="objectBoundingBox" width="1" height="1">
      <use xlink:href="#image0_25_25" transform="matrix(0.0015015 0 0 0.0026796 0 -0.0024255)"/>
    </pattern>
  </defs>
</svg>
